<svg xmlns="http://www.w3.org/2000/svg" viewBox="0 0 64 64"><rect width="64" height="64" rx="13" fill="#FDC8C8"/><path d="M39.44 15.26 L39.39 15.38 L39.33 15.50 L39.28 15.62 L39.21 15.76 L39.15 15.90 L39.09 16.04 L39.02 16.20 L38.94 16.35 L38.87 16.52 L38.79 16.69 L38.71 16.86 L38.63 17.04 L38.54 17.23 L38.46 17.42 L38.37 17.62 L38.27 17.82 L38.18 18.03 L38.08 18.24 L37.98 18.46 L37.88 18.69 L37.78 18.92 L37.67 19.16 L37.56 19.40 L37.45 19.64 L37.34 19.89 L37.22 20.15 L37.10 20.41 L36.99 20.68 L36.86 20.95 L36.74 21.23 L36.62 21.51 L36.49 21.79 L36.36 22.08 L36.23 22.38 L36.10 22.68 L35.96 22.98 L35.83 23.29 L35.69 23.61 L35.55 23.93 L35.41 24.25 L35.27 24.58 L35.12 24.93 L34.97 25.28 L34.81 25.65 L34.65 26.03 L34.49 26.41 L34.32 26.81 L34.15 27.21 L33.98 27.63 L33.80 28.05 L33.62 28.48 L33.44 28.91 L33.26 29.35 L33.08 29.79 L32.89 30.24 L32.70 30.70 L32.51 31.16 L32.32 31.62 L32.13 32.08 L31.93 32.54 L31.74 33.01 L31.54 33.47 L31.35 33.94 L31.15 34.41 L30.95 34.87 L30.76 35.33 L30.56 35.79 L30.37 36.25 L30.17 36.70 L29.98 37.15 L29.79 37.60 L29.59 38.04 L29.40 38.47 L29.22 38.90 L29.03 39.32 L28.84 39.73 L28.66 40.14 L28.48 40.54 L28.30 40.92 L28.13 41.30 L27.95 41.67 L27.78 42.04 L27.60 42.42 L27.43 42.79 L27.25 43.16 L27.08 43.53 L26.90 43.90 L26.73 44.27 L26.55 44.64 L26.38 45.01 L26.20 45.37 L26.03 45.73 L25.85 46.09 L25.68 46.45 L25.51 46.81 L25.33 47.16 L25.16 47.51 L24.99 47.85 L24.82 48.19 L24.65 48.53 L24.48 48.86 L24.31 49.19 L24.14 49.51 L23.97 49.83 L23.81 50.14 L23.64 50.44 L23.48 50.75 L23.31 51.04 L23.15 51.33 L22.99 51.61 L22.83 51.88 L22.67 52.15 L22.52 52.41 L22.36 52.67 L22.21 52.91 L22.05 53.15 L21.90 53.38 L21.75 53.60 L21.61 53.81 L21.46 54.01 L21.32 54.20 L21.17 54.39 L21.03 54.57 L20.89 54.74 L20.75 54.91 L20.62 55.07 L20.48 55.22 L20.35 55.37 L20.21 55.51 L20.08 55.64 L19.95 55.77 L19.82 55.89 L19.69 56.01 L19.57 56.11 L19.44 56.22 L19.32 56.31 L19.19 56.41 L19.07 56.49 L18.95 56.57 L18.82 56.64 L18.70 56.71 L18.58 56.78 L18.47 56.84 L18.35 56.89 L18.23 56.94 L18.11 56.98 L17.99 57.02 L17.88 57.05 L17.76 57.08 L17.65 57.11 L17.53 57.12 L17.42 57.14 L17.30 57.15 L17.19 57.16 L17.07 57.16 L16.96 57.16 L16.84 57.15 L16.73 57.14 L16.61 57.13 L16.50 57.11 L16.38 57.09 L16.27 57.06 L16.15 57.03 L16.03 56.99 L15.91 56.94 L15.79 56.89 L15.66 56.84 L15.54 56.78 L15.41 56.72 L15.29 56.64 L15.17 56.57 L15.04 56.49 L14.92 56.40 L14.79 56.31 L14.67 56.22 L14.55 56.12 L14.43 56.02 L14.31 55.91 L14.19 55.79 L14.07 55.68 L13.95 55.55 L13.84 55.43 L13.73 55.30 L13.62 55.16 L13.51 55.02 L13.41 54.88 L13.30 54.73 L13.20 54.58 L13.11 54.42 L13.02 54.26 L12.93 54.10 L12.84 53.93 L12.76 53.76 L12.68 53.58 L12.61 53.41 L12.54 53.22 L12.48 53.04 L12.42 52.85 L12.36 52.66 L12.32 52.46 L12.27 52.26 L12.23 52.05 L12.19 51.84 L12.15 51.63 L12.12 51.41 L12.09 51.18 L12.06 50.95 L12.03 50.71 L12.01 50.47 L11.99 50.23 L11.98 49.98 L11.96 49.73 L11.95 49.47 L11.94 49.21 L11.94 48.94 L11.94 48.67 L11.94 48.40 L11.94 48.12 L11.95 47.84 L11.96 47.56 L11.97 47.27 L11.98 46.98 L12.00 46.69 L12.02 46.39 L12.05 46.09 L12.08 45.79 L12.11 45.48 L12.14 45.17 L12.18 44.86 L12.22 44.55 L12.26 44.23 L12.31 43.91 L12.35 43.59 L12.41 43.27 L12.46 42.95 L12.52 42.62 L12.58 42.29 L12.64 41.96 L12.71 41.63 L12.78 41.30 L12.85 40.96 L12.93 40.62 L13.01 40.27 L13.09 39.91 L13.18 39.55 L13.27 39.18 L13.36 38.81 L13.46 38.43 L13.56 38.04 L13.66 37.66 L13.76 37.27 L13.87 36.87 L13.98 36.47 L14.10 36.07 L14.21 35.67 L14.33 35.26 L14.46 34.86 L14.58 34.45 L14.71 34.04 L14.84 33.63 L14.98 33.22 L15.12 32.81 L15.26 32.40 L15.40 31.99 L15.54 31.58 L15.69 31.17 L15.84 30.76 L16.00 30.36 L16.16 29.96 L16.31 29.56 L16.48 29.16 L16.64 28.77 L16.81 28.38 L16.98 28.00 L17.15 27.62 L17.33 27.24 L17.50 26.87 L17.68 26.51 L17.87 26.15 L18.05 25.80 L18.24 25.45 L18.43 25.10 L18.63 24.76 L18.82 24.41 L19.03 24.06 L19.23 23.72 L19.44 23.37 L19.65 23.03 L19.87 22.68 L20.09 22.34 L20.31 22.00 L20.54 21.67 L20.76 21.33 L20.99 21.00 L21.23 20.66 L21.46 20.33 L21.70 20.01 L21.94 19.68 L22.18 19.36 L22.43 19.04 L22.68 18.72 L22.93 18.41 L23.18 18.10 L23.43 17.79 L23.68 17.48 L23.94 17.18 L24.20 16.88 L24.46 16.59 L24.72 16.30 L24.98 16.01 L25.25 15.73 L25.51 15.45 L25.78 15.18 L26.04 14.91 L26.31 14.65 L26.58 14.39 L26.85 14.13 L27.12 13.88 L27.39 13.64 L27.66 13.40 L27.93 13.16 L28.21 12.93 L28.50 12.70 L28.78 12.47 L29.08 12.25 L29.37 12.02 L29.67 11.80 L29.98 11.58 L30.28 11.37 L30.59 11.15 L30.90 10.95 L31.22 10.74 L31.53 10.54 L31.85 10.34 L32.17 10.15 L32.49 9.96 L32.81 9.77 L33.13 9.59 L33.45 9.41 L33.77 9.23 L34.09 9.07 L34.41 8.90 L34.73 8.74 L35.05 8.59 L35.37 8.44 L35.68 8.29 L36.00 8.15 L36.31 8.02 L36.61 7.89 L36.92 7.77 L37.22 7.65 L37.52 7.54 L37.82 7.44 L38.11 7.34 L38.39 7.25 L38.67 7.16 L38.95 7.08 L39.22 7.01 L39.49 6.95 L39.75 6.89 L40.01 6.84 L40.26 6.80 L40.52 6.76 L40.77 6.73 L41.02 6.71 L41.26 6.69 L41.51 6.68 L41.75 6.68 L41.99 6.68 L42.23 6.69 L42.47 6.71 L42.71 6.73 L42.94 6.75 L43.17 6.79 L43.40 6.82 L43.62 6.87 L43.85 6.91 L44.07 6.96 L44.29 7.02 L44.51 7.08 L44.72 7.15 L44.93 7.22 L45.14 7.29 L45.35 7.37 L45.55 7.46 L45.75 7.54 L45.95 7.63 L46.15 7.73 L46.34 7.82 L46.53 7.92 L46.72 8.02 L46.90 8.13 L47.09 8.24 L47.27 8.35 L47.44 8.46 L47.61 8.58 L47.78 8.70 L47.95 8.82 L48.11 8.94 L48.27 9.06 L48.43 9.19 L48.59 9.32 L48.74 9.46 L48.90 9.60 L49.05 9.75 L49.20 9.90 L49.35 10.06 L49.49 10.22 L49.63 10.39 L49.78 10.56 L49.91 10.73 L50.05 10.91 L50.18 11.09 L50.31 11.28 L50.44 11.47 L50.57 11.66 L50.69 11.86 L50.81 12.06 L50.92 12.26 L51.04 12.46 L51.15 12.67 L51.25 12.87 L51.35 13.08 L51.45 13.30 L51.55 13.51 L51.64 13.73 L51.73 13.94 L51.81 14.16 L51.89 14.38 L51.96 14.60 L52.03 14.82 L52.10 15.04 L52.16 15.26 L52.22 15.48 L52.27 15.71 L52.32 15.93 L52.36 16.15 L52.40 16.37 L52.43 16.59 L52.46 16.81 L52.48 17.03 L52.50 17.26 L52.52 17.48 L52.53 17.72 L52.53 17.95 L52.53 18.19 L52.53 18.43 L52.52 18.68 L52.51 18.93 L52.50 19.17 L52.48 19.43 L52.45 19.68 L52.42 19.93 L52.39 20.19 L52.36 20.45 L52.32 20.70 L52.27 20.96 L52.23 21.22 L52.18 21.48 L52.12 21.74 L52.06 22.00 L52.00 22.26 L51.93 22.52 L51.86 22.77 L51.79 23.03 L51.72 23.28 L51.63 23.54 L51.55 23.79 L51.46 24.04 L51.37 24.28 L51.28 24.53 L51.18 24.77 L51.08 25.01 L50.98 25.24 L50.87 25.47 L50.76 25.70 L50.65 25.93 L50.53 26.15 L50.41 26.36 L50.29 26.57 L50.16 26.78 L50.03 26.99 L49.89 27.20 L49.75 27.41 L49.60 27.62 L49.45 27.82 L49.29 28.03 L49.13 28.23 L48.96 28.43 L48.79 28.63 L48.62 28.83 L48.44 29.03 L48.26 29.23 L48.07 29.43 L47.88 29.62 L47.69 29.81 L47.49 30.00 L47.29 30.19 L47.09 30.37 L46.89 30.56 L46.68 30.74 L46.48 30.91 L46.27 31.09 L46.05 31.26 L45.84 31.43 L45.62 31.60 L45.41 31.76 L45.19 31.92 L44.97 32.08 L44.75 32.23 L44.53 32.38 L44.31 32.53 L44.09 32.67 L43.87 32.81 L43.64 32.94 L43.42 33.07 L43.20 33.20 L42.98 33.32 L42.76 33.44 L42.54 33.55 L42.32 33.66 L42.09 33.76 L41.86 33.86 L41.63 33.96 L41.39 34.06 L41.15 34.15 L40.91 34.23 L40.66 34.32 L40.41 34.40 L40.16 34.48 L39.90 34.55 L39.65 34.62 L39.39 34.69 L39.13 34.75 L38.87 34.81 L38.61 34.87 L38.35 34.93 L38.08 34.98 L37.82 35.03 L37.56 35.07 L37.30 35.11 L37.04 35.15 L36.78 35.19 L36.52 35.22 L36.26 35.26 L36.01 35.28 L35.76 35.31 L35.51 35.33 L35.26 35.35 L35.01 35.37 L34.77 35.39 L34.53 35.40 L34.30 35.41 L34.07 35.42 L33.84 35.42 L33.62 35.42 L33.40 35.42 L33.19 35.42 L32.98 35.42 L32.77 35.41 L32.58 35.40 L32.38 35.38 L32.18 35.36 L31.99 35.34 L31.80 35.31 L31.61 35.27 L31.42 35.23 L31.23 35.19 L31.04 35.14 L30.86 35.09 L30.68 35.03 L30.50 34.98 L30.32 34.91 L30.15 34.85 L29.98 34.78 L29.81 34.72 L29.64 34.64 L29.47 34.57 L29.31 34.50 L29.15 34.42 L28.99 34.34 L28.84 34.27 L28.69 34.19 L28.54 34.11 L28.39 34.03 L28.25 33.95 L28.11 33.87 L27.97 33.79 L27.83 33.71 L27.70 33.63 L27.58 33.55 L27.45 33.48 L27.33 33.40 L27.21 33.33 L27.10 33.25 L26.98 33.18 L26.88 33.12 L26.77 33.05 L26.67 32.99 L26.57 32.93 L26.48 32.87 L26.40 32.81 L26.31 32.75 L26.23 32.69 L26.16 32.63 L26.09 32.57 L26.03 32.50 L25.97 32.44 L25.91 32.38 L25.86 32.31 L25.81 32.25 L25.76 32.19 L25.72 32.12 L25.68 32.06 L25.64 32.00 L25.60 31.94 L25.57 31.87 L25.54 31.81 L25.52 31.75 L25.49 31.69 L25.47 31.63 L25.45 31.57 L25.43 31.51 L25.41 31.46 L25.39 31.40 L25.37 31.35 L25.36 31.29 L25.34 31.24 L25.33 31.19 L25.32 31.14 L25.31 31.10 L25.29 31.05 L25.28 31.01 L25.27 30.96 L25.25 30.93 L25.24 30.89 L25.23 30.85 L25.21 30.82 L25.20 30.79 L25.18 30.76" fill="none" stroke="#1F7A3A" stroke-width="5.4" stroke-linecap="round" stroke-linejoin="round"/><path d="M39.44 15.26 L39.39 15.38 L39.33 15.50 L39.28 15.62 L39.21 15.76 L39.15 15.90 L39.09 16.04 L39.02 16.20 L38.94 16.35 L38.87 16.52 L38.79 16.69 L38.71 16.86 L38.63 17.04 L38.54 17.23 L38.46 17.42 L38.37 17.62 L38.27 17.82 L38.18 18.03 L38.08 18.24 L37.98 18.46 L37.88 18.69 L37.78 18.92 L37.67 19.16 L37.56 19.40 L37.45 19.64 L37.34 19.89 L37.22 20.15 L37.10 20.41 L36.99 20.68 L36.86 20.95 L36.74 21.23 L36.62 21.51 L36.49 21.79 L36.36 22.08 L36.23 22.38 L36.10 22.68 L35.96 22.98 L35.83 23.29 L35.69 23.61 L35.55 23.93 L35.41 24.25 L35.27 24.58 L35.12 24.93 L34.97 25.28 L34.81 25.65 L34.65 26.03 L34.49 26.41 L34.32 26.81 L34.15 27.21 L33.98 27.63 L33.80 28.05 L33.62 28.48 L33.44 28.91 L33.26 29.35 L33.08 29.79 L32.89 30.24 L32.70 30.70 L32.51 31.16 L32.32 31.62 L32.13 32.08 L31.93 32.54 L31.74 33.01 L31.54 33.47 L31.35 33.94 L31.15 34.41 L30.95 34.87 L30.76 35.33 L30.56 35.79 L30.37 36.25 L30.17 36.70 L29.98 37.15 L29.79 37.60 L29.59 38.04 L29.40 38.47 L29.22 38.90 L29.03 39.32 L28.84 39.73 L28.66 40.14 L28.48 40.54 L28.30 40.92 L28.13 41.30 L27.95 41.67 L27.78 42.04 L27.60 42.42 L27.43 42.79 L27.25 43.16 L27.08 43.53 L26.90 43.90 L26.73 44.27 L26.55 44.64 L26.38 45.01 L26.20 45.37 L26.03 45.73 L25.85 46.09 L25.68 46.45 L25.51 46.81 L25.33 47.16 L25.16 47.51 L24.99 47.85 L24.82 48.19 L24.65 48.53 L24.48 48.86 L24.31 49.19 L24.14 49.51 L23.97 49.83 L23.81 50.14 L23.64 50.44 L23.48 50.75 L23.31 51.04 L23.15 51.33 L22.99 51.61 L22.83 51.88 L22.67 52.15 L22.52 52.41 L22.36 52.67 L22.21 52.91 L22.05 53.15 L21.90 53.38 L21.75 53.60 L21.61 53.81 L21.46 54.01 L21.32 54.20 L21.17 54.39 L21.03 54.57 L20.89 54.74 L20.75 54.91 L20.62 55.07 L20.48 55.22 L20.35 55.37 L20.21 55.51 L20.08 55.64 L19.95 55.77 L19.82 55.89 L19.69 56.01 L19.57 56.11 L19.44 56.22 L19.32 56.31 L19.19 56.41 L19.07 56.49 L18.95 56.57 L18.82 56.64 L18.70 56.71 L18.58 56.78 L18.47 56.84 L18.35 56.89 L18.23 56.94 L18.11 56.98 L17.99 57.02 L17.88 57.05 L17.76 57.08 L17.65 57.11 L17.53 57.12 L17.42 57.14 L17.30 57.15 L17.19 57.16 L17.07 57.16 L16.96 57.16 L16.84 57.15 L16.73 57.14 L16.61 57.13 L16.50 57.11 L16.38 57.09 L16.27 57.06 L16.15 57.03 L16.03 56.99 L15.91 56.94 L15.79 56.89 L15.66 56.84 L15.54 56.78 L15.41 56.72 L15.29 56.64 L15.17 56.57 L15.04 56.49 L14.92 56.40 L14.79 56.31 L14.67 56.22 L14.55 56.12 L14.43 56.02 L14.31 55.91 L14.19 55.79 L14.07 55.68 L13.95 55.55 L13.84 55.43 L13.73 55.30 L13.62 55.16 L13.51 55.02 L13.41 54.88 L13.30 54.73 L13.20 54.58 L13.11 54.42 L13.02 54.26 L12.93 54.10 L12.84 53.93 L12.76 53.76 L12.68 53.58 L12.61 53.41 L12.54 53.22 L12.48 53.04 L12.42 52.85 L12.36 52.66 L12.32 52.46 L12.27 52.26 L12.23 52.05 L12.19 51.84 L12.15 51.63 L12.12 51.41 L12.09 51.18 L12.06 50.95 L12.03 50.71 L12.01 50.47 L11.99 50.23 L11.98 49.98 L11.96 49.73 L11.95 49.47 L11.94 49.21 L11.94 48.94 L11.94 48.67 L11.94 48.40 L11.94 48.12 L11.95 47.84 L11.96 47.56 L11.97 47.27 L11.98 46.98 L12.00 46.69 L12.02 46.39 L12.05 46.09 L12.08 45.79 L12.11 45.48 L12.14 45.17 L12.18 44.86 L12.22 44.55 L12.26 44.23 L12.31 43.91 L12.35 43.59 L12.41 43.27 L12.46 42.95 L12.52 42.62 L12.58 42.29 L12.64 41.96 L12.71 41.63 L12.78 41.30 L12.85 40.96 L12.93 40.62 L13.01 40.27 L13.09 39.91 L13.18 39.55 L13.27 39.18 L13.36 38.81 L13.46 38.43 L13.56 38.04 L13.66 37.66 L13.76 37.27 L13.87 36.87 L13.98 36.47 L14.10 36.07 L14.21 35.67 L14.33 35.26 L14.46 34.86 L14.58 34.45 L14.71 34.04 L14.84 33.63 L14.98 33.22 L15.12 32.81 L15.26 32.40 L15.40 31.99 L15.54 31.58 L15.69 31.17 L15.84 30.76 L16.00 30.36 L16.16 29.96 L16.31 29.56 L16.48 29.16 L16.64 28.77 L16.81 28.38 L16.98 28.00 L17.15 27.62 L17.33 27.24 L17.50 26.87 L17.68 26.51 L17.87 26.15 L18.05 25.80 L18.24 25.45 L18.43 25.10 L18.63 24.76 L18.82 24.41 L19.03 24.06 L19.23 23.72 L19.44 23.37 L19.65 23.03 L19.87 22.68 L20.09 22.34 L20.31 22.00 L20.54 21.67 L20.76 21.33 L20.99 21.00 L21.23 20.66 L21.46 20.33 L21.70 20.01 L21.94 19.68 L22.18 19.36 L22.43 19.04 L22.68 18.72 L22.93 18.41 L23.18 18.10 L23.43 17.79 L23.68 17.48 L23.94 17.18 L24.20 16.88 L24.46 16.59 L24.72 16.30 L24.98 16.01 L25.25 15.73 L25.51 15.45 L25.78 15.18 L26.04 14.91 L26.31 14.65 L26.58 14.39 L26.85 14.13 L27.12 13.88 L27.39 13.64 L27.66 13.40 L27.93 13.16 L28.21 12.93 L28.50 12.70 L28.78 12.47 L29.08 12.25 L29.37 12.02 L29.67 11.80 L29.98 11.58 L30.28 11.37 L30.59 11.15 L30.90 10.95 L31.22 10.74 L31.53 10.54 L31.85 10.34 L32.17 10.15 L32.49 9.96 L32.81 9.77 L33.13 9.59 L33.45 9.41 L33.77 9.23 L34.09 9.07 L34.41 8.90 L34.73 8.74 L35.05 8.59 L35.37 8.44 L35.68 8.29 L36.00 8.15 L36.31 8.02 L36.61 7.89 L36.92 7.77 L37.22 7.65 L37.52 7.54 L37.82 7.44 L38.11 7.34 L38.39 7.25 L38.67 7.16 L38.95 7.08 L39.22 7.01 L39.49 6.95 L39.75 6.89 L40.01 6.84 L40.26 6.80 L40.52 6.76 L40.77 6.73 L41.02 6.71 L41.26 6.69 L41.51 6.68 L41.75 6.68 L41.99 6.68 L42.23 6.69 L42.47 6.71 L42.71 6.73 L42.94 6.75 L43.17 6.79 L43.40 6.82 L43.62 6.87 L43.85 6.91 L44.07 6.96 L44.29 7.02 L44.51 7.08 L44.72 7.15 L44.93 7.22 L45.14 7.29 L45.35 7.37 L45.55 7.46 L45.75 7.54 L45.95 7.63 L46.15 7.73 L46.34 7.82 L46.53 7.92 L46.72 8.02 L46.90 8.13 L47.09 8.24 L47.27 8.35 L47.44 8.46 L47.61 8.58 L47.78 8.70 L47.95 8.82 L48.11 8.94 L48.27 9.06 L48.43 9.19 L48.59 9.32 L48.74 9.46 L48.90 9.60 L49.05 9.75 L49.20 9.90 L49.35 10.06 L49.49 10.22 L49.63 10.39 L49.78 10.56 L49.91 10.73 L50.05 10.91 L50.18 11.09 L50.31 11.28 L50.44 11.47 L50.57 11.66 L50.69 11.86 L50.81 12.06 L50.92 12.26 L51.04 12.46 L51.15 12.67 L51.25 12.87 L51.35 13.08 L51.45 13.30 L51.55 13.51 L51.64 13.73 L51.73 13.94 L51.81 14.16 L51.89 14.38 L51.96 14.60 L52.03 14.82 L52.10 15.04 L52.16 15.26 L52.22 15.48 L52.27 15.71 L52.32 15.93 L52.36 16.15 L52.40 16.37 L52.43 16.59 L52.46 16.81 L52.48 17.03 L52.50 17.26 L52.52 17.48 L52.53 17.72 L52.53 17.95 L52.53 18.19 L52.53 18.43 L52.52 18.68 L52.51 18.93 L52.50 19.17 L52.48 19.43 L52.45 19.68 L52.42 19.93 L52.39 20.19 L52.36 20.45 L52.32 20.70 L52.27 20.96 L52.23 21.22 L52.18 21.48 L52.12 21.74 L52.06 22.00 L52.00 22.26 L51.93 22.52 L51.86 22.77 L51.79 23.03 L51.72 23.28 L51.63 23.54 L51.55 23.79 L51.46 24.04 L51.37 24.28 L51.28 24.53 L51.18 24.77 L51.08 25.01 L50.98 25.24 L50.87 25.47 L50.76 25.70 L50.65 25.93 L50.53 26.15 L50.41 26.36 L50.29 26.57 L50.16 26.78 L50.03 26.99 L49.89 27.20 L49.75 27.41 L49.60 27.62 L49.45 27.82 L49.29 28.03 L49.13 28.23 L48.96 28.43 L48.79 28.63 L48.62 28.83 L48.44 29.03 L48.26 29.23 L48.07 29.43 L47.88 29.62 L47.69 29.81 L47.49 30.00 L47.29 30.19 L47.09 30.37 L46.89 30.56 L46.68 30.74 L46.48 30.91 L46.27 31.09 L46.05 31.26 L45.84 31.43 L45.62 31.60 L45.41 31.76 L45.19 31.92 L44.97 32.08 L44.75 32.23 L44.53 32.38 L44.31 32.53 L44.09 32.67 L43.87 32.81 L43.64 32.94 L43.42 33.07 L43.20 33.20 L42.98 33.32 L42.76 33.44 L42.54 33.55 L42.32 33.66 L42.09 33.76 L41.86 33.86 L41.63 33.96 L41.39 34.06 L41.15 34.15 L40.91 34.23 L40.66 34.32 L40.41 34.40 L40.16 34.48 L39.90 34.55 L39.65 34.62 L39.39 34.69 L39.13 34.75 L38.87 34.81 L38.61 34.87 L38.35 34.93 L38.08 34.98 L37.82 35.03 L37.56 35.07 L37.30 35.11 L37.04 35.15 L36.78 35.19 L36.52 35.22 L36.26 35.26 L36.01 35.28 L35.76 35.31 L35.51 35.33 L35.26 35.35 L35.01 35.37 L34.77 35.39 L34.53 35.40 L34.30 35.41 L34.07 35.42 L33.84 35.42 L33.62 35.42 L33.40 35.42 L33.19 35.42 L32.98 35.42 L32.77 35.41 L32.58 35.40 L32.38 35.38 L32.18 35.36 L31.99 35.34 L31.80 35.31 L31.61 35.27 L31.42 35.23 L31.23 35.19 L31.04 35.14 L30.86 35.09 L30.68 35.03 L30.50 34.98 L30.32 34.91 L30.15 34.85 L29.98 34.78 L29.81 34.72 L29.64 34.64 L29.47 34.57 L29.31 34.50 L29.15 34.42 L28.99 34.34 L28.84 34.27 L28.69 34.19 L28.54 34.11 L28.39 34.03 L28.25 33.95 L28.11 33.87 L27.97 33.79 L27.83 33.71 L27.70 33.63 L27.58 33.55 L27.45 33.48 L27.33 33.40 L27.21 33.33 L27.10 33.25 L26.98 33.18 L26.88 33.12 L26.77 33.05 L26.67 32.99 L26.57 32.93 L26.48 32.87 L26.40 32.81 L26.31 32.75 L26.23 32.69 L26.16 32.63 L26.09 32.57 L26.03 32.50 L25.97 32.44 L25.91 32.38 L25.86 32.31 L25.81 32.25 L25.76 32.19 L25.72 32.12 L25.68 32.06 L25.64 32.00 L25.60 31.94 L25.57 31.87 L25.54 31.81 L25.52 31.75 L25.49 31.69 L25.47 31.63 L25.45 31.57 L25.43 31.51 L25.41 31.46 L25.39 31.40 L25.37 31.35 L25.36 31.29 L25.34 31.24 L25.33 31.19 L25.32 31.14 L25.31 31.10 L25.29 31.05 L25.28 31.01 L25.27 30.96 L25.25 30.93 L25.24 30.89 L25.23 30.85 L25.21 30.82 L25.20 30.79 L25.18 30.76" fill="none" stroke="#2F9A4E" stroke-width="4.3" stroke-linecap="round" stroke-linejoin="round"/><path d="M40.15 17.33L36.58 17.90M39.12 19.60L35.55 20.19M38.01 22.07L34.45 22.69M37.04 24.26L33.49 24.90M36.10 26.47L32.55 27.15M35.03 29.00L31.49 29.69M34.09 31.27L30.55 31.96M33.12 33.60L29.57 34.28M32.14 35.92L28.59 36.58M31.18 38.16L27.62 38.78M30.26 40.25L26.69 40.82M29.21 42.53L25.64 43.05M27.99 45.12L24.41 45.62M26.95 47.28L23.37 47.73M25.94 49.32L22.34 49.70M24.64 51.78L21.03 51.99M23.41 53.85L19.80 53.76M21.72 56.15L18.18 55.39M19.25 58.22L16.50 55.88M15.60 58.51L15.23 54.92M12.93 56.73L14.09 53.31M11.28 54.25L13.56 51.44M10.61 51.61L13.42 49.34M10.42 48.81L13.48 46.88M10.51 46.33L13.70 44.63M10.81 43.68L14.11 42.21M11.32 40.91L14.70 39.63M11.85 38.64L15.26 37.45M12.49 36.21L15.94 35.13M13.24 33.70L16.72 32.73M14.09 31.17L17.60 30.35M15.03 28.71L18.59 28.06M16.07 26.36L19.66 25.94M17.22 24.17L20.83 23.96M18.50 22.02L22.12 21.99M19.90 19.93L23.51 20.08M21.63 17.60L25.23 17.97M23.20 15.73L26.77 16.29M25.09 13.73L28.61 14.54M26.77 12.17L30.22 13.24M28.92 10.48L32.27 11.83M31.19 8.97L34.43 10.57M33.49 7.67L36.61 9.50M35.75 6.61L38.70 8.70M38.16 5.72L40.82 8.17M41.01 5.16L42.97 8.20M43.96 5.36L45.06 8.80M46.57 6.22L46.87 9.82M49.00 7.67L48.49 11.25M51.13 9.80L49.75 13.14M52.63 12.22L50.64 15.23M53.58 14.63L51.06 17.22M54.05 17.45L51.01 19.42M53.92 20.23L50.62 21.70M53.37 23.04L49.90 24.03M52.55 25.46L48.97 25.95M51.25 27.92L47.64 27.73M49.46 30.17L45.92 29.45M47.56 31.99L44.12 30.87M45.51 33.55L42.22 32.06M43.13 34.97L40.13 32.96M40.46 35.97L37.80 33.53M37.98 36.54L35.58 33.84M35.36 36.87L33.23 33.95M32.55 36.95L31.05 33.66M29.78 36.35L29.17 32.79M27.39 35.21L27.27 31.59M24.55 33.28L26.48 30.22" fill="none" stroke="#F4F0CF" stroke-width="1.0" stroke-linecap="round"/></svg>